<svg width="152" height="196" viewBox="0 0 152 196" fill="none" xmlns="http://www.w3.org/2000/svg">
<path d="M7.27577 29.5387C6.97552 28.4357 6.95255 27.8313 7.08465 27.8115C7.5569 27.8083 8.0885 28.2015 8.67944 28.9909C9.28027 29.8464 9.67305 30.6655 9.80163 31.5241C9.82142 31.6562 9.76525 31.7322 9.78504 31.8643C9.80482 31.9964 9.81471 32.0624 9.81471 32.0624C9.8246 32.1285 9.76844 32.2044 9.77833 32.2705C9.79811 32.4026 9.808 32.4686 9.808 32.4686C9.85746 32.7989 10.0853 32.9674 10.4915 32.9741C10.8977 32.9808 11.6903 32.8621 13.0113 32.6643L16.1818 32.1895L15.6968 30.3037C15.4658 29.663 15.3965 29.2006 15.3767 29.0685C15.3273 28.7383 15.4297 28.5203 15.6939 28.4808C15.826 28.461 15.902 28.5171 16.0341 28.4973C16.5823 28.5503 16.9818 28.9632 17.2325 29.7361C17.4173 30.5188 17.9884 31.1761 18.88 31.7179C19.4776 32.1012 19.8573 32.382 19.8771 32.5141C19.8969 32.6462 19.7284 32.874 19.3717 33.1975C18.9588 33.597 18.82 34.023 18.8892 34.4854C18.909 34.6175 18.9782 35.0798 19.2092 35.7206C19.46 36.4934 19.7634 38.0687 20.1393 40.5787C20.525 43.1547 20.8052 45.4763 20.9698 47.4776C20.9631 47.8838 20.6625 48.1314 19.9822 48.0983C19.576 48.0915 19.292 47.999 19.1401 47.8867C18.9883 47.7744 18.9487 47.5102 18.8696 46.9818L18.7608 46.2552C18.6092 44.7922 18.4082 42.9989 18.1016 40.9513C18.0324 40.489 17.8476 39.7062 17.6795 38.5834C17.5212 37.5266 17.4025 36.734 17.3234 36.2055L16.931 34.0357L15.1179 34.1046C13.853 34.2265 13.2685 34.3816 13.308 34.6458C13.3278 34.7779 13.1396 34.8736 12.7433 34.933C12.6112 34.9528 12.3469 34.9923 12.0827 35.0319C11.7525 35.0813 11.5444 35.045 11.4784 35.0548C11.2142 35.0944 11.092 35.1802 11.0358 35.2562C11.0288 37.0131 10.9691 37.9675 10.7907 38.1292C10.6982 38.4132 10.8995 38.8558 11.3287 39.4669C11.8338 40.1341 12.2693 41.6896 12.6452 44.1996C12.9716 46.3792 12.9416 47.5318 12.6311 47.7133C12.5089 47.7992 12.3768 47.819 12.2447 47.8387C11.7163 47.9179 11.3267 47.571 11.0561 46.6661C10.7855 45.7612 10.3864 43.9976 9.97095 41.2234C9.43014 38.0629 9.02109 36.2332 8.79997 35.6585C8.5128 35.0937 7.85899 34.7864 6.9145 34.7928C6.31015 34.8158 5.95022 34.6671 5.82482 34.2807L5.81493 34.2146L5.7291 34.0924C5.68954 33.8282 5.99012 33.5806 6.78273 33.4619C6.78273 33.4619 6.92472 33.5082 7.12288 33.4785C7.32103 33.4488 7.45313 33.4291 7.58523 33.4093L7.71734 33.3895C8.37785 33.2906 8.73459 32.967 8.64557 32.3726C8.6159 32.1744 8.45412 31.996 8.29235 31.8177C7.8367 31.4807 7.51985 30.7178 7.27577 29.5387ZM40.8579 34.032C40.617 33.3252 40.1613 32.9882 39.4348 33.097C38.9724 33.1663 38.4076 33.4535 37.6645 33.9024C37.0633 34.3976 36.4325 34.6947 35.838 34.7837C35.5078 34.8331 35.0355 34.8363 34.4213 34.7933C33.741 34.7601 33.3348 34.7534 33.1366 34.783C32.7403 34.8424 32.3274 35.2419 31.9541 35.9056C31.4882 36.8532 31.313 37.4873 31.3625 37.8175C31.4218 38.2138 31.1972 38.5176 30.8206 38.709C30.5102 38.8906 30.4176 39.1746 30.5331 39.4949C30.6585 39.8814 30.632 40.1555 30.5395 40.4394C30.371 40.6673 30.3445 40.9414 30.394 41.2716C30.5127 42.0642 31.0277 42.7975 31.9951 43.3955C32.6027 43.8448 33.4744 44.2545 34.6104 44.6246C35.7562 45.0608 36.4563 45.2261 36.7865 45.1767C37.1168 45.1272 37.9624 44.4603 39.3893 43.1661C40.225 42.4332 40.8064 41.8059 41.1434 41.3502C41.4143 40.9045 41.6456 40.1945 41.8473 39.2864C41.9928 38.4542 42.026 37.7739 41.9271 37.1134C41.8875 36.8492 41.8017 36.727 41.7819 36.5949C41.4188 35.974 41.0921 35.145 40.8579 34.032ZM37.2787 31.3264C36.975 31.1018 36.691 31.0092 36.2947 31.0686C35.436 31.1972 35.0132 31.5306 34.9602 32.0788C34.914 32.2208 34.9436 32.4189 34.9634 32.551C35.003 32.8152 35.0789 32.8714 35.2771 32.8417C35.4752 32.8121 35.9178 32.6107 36.5388 32.2476C36.7931 32.142 37.0375 31.9703 37.206 31.7425C37.3183 31.5906 37.3646 31.4486 37.2787 31.3264ZM33.524 30.6055C34.198 29.6942 35.0534 29.0934 36.1103 28.9352C37.1671 28.7769 38.4351 29.1273 39.8286 29.8641C40.5682 30.2936 41.1757 30.7428 41.5653 31.0897C41.9648 31.5026 42.3181 32.0575 42.6349 32.8204C43.3544 34.4685 43.7472 35.2876 43.8231 35.3438C43.9485 35.7302 43.9782 35.9284 43.9221 36.0043C43.856 36.0142 44.0277 36.2586 44.4173 36.6055C44.579 36.7838 44.7408 36.9622 44.7705 37.1604C44.8298 37.5567 44.5324 38.2765 43.9641 39.4421C43.1811 40.9776 42.8275 41.7734 42.8473 41.9055C42.877 42.1036 42.6258 42.6815 42.2161 43.5532C41.7404 44.4349 40.9509 45.0258 39.9139 45.3162C38.8769 45.6065 38.388 45.9498 38.4276 46.214C38.4671 46.4783 38.1468 46.5938 37.4863 46.6927C36.4295 46.8509 35.485 46.8573 34.699 46.5698C34.425 46.5433 34.0089 46.4705 33.4409 46.2855C32.8828 46.1664 32.5328 46.0838 32.3908 46.0375C31.6907 45.8722 31.3407 45.7896 31.2086 45.8094C30.9246 45.7168 30.3732 45.1916 29.6865 44.2139C29.0296 43.4344 28.6566 42.7474 28.5774 42.219C28.5181 41.8227 28.5149 41.3504 28.6339 40.7923C29.0309 38.0316 29.791 35.8918 30.7821 34.3928C31.456 33.4815 31.8293 32.8178 31.7799 32.4875C31.7502 32.2893 31.8625 32.1375 32.1267 32.0979C32.3249 32.0682 32.794 31.5928 33.524 30.6055ZM53.0612 17.9553C53.0315 17.7571 53.2099 17.5954 53.7383 17.5162C54.2006 17.447 54.4846 17.5395 54.5143 17.7377C54.7453 18.3784 54.93 19.1612 55.0487 19.9538C55.207 21.0106 55.1837 21.7569 55.0449 22.1829C54.8499 22.6848 54.8994 23.0151 55.3352 23.2199C55.6192 23.3125 55.8668 23.6131 55.946 24.1415C56.0053 24.5378 55.817 24.6335 55.467 24.5509C55.2688 24.5805 55.2028 24.5904 55.2028 24.5904C55.2226 24.7225 55.3183 24.9108 55.49 25.1552C55.6715 25.4657 55.9322 26.3046 56.13 27.6256C56.1597 27.8237 56.1431 28.1639 56.2024 28.5602C56.2618 28.9565 56.3112 29.2867 56.3409 29.4849C56.4003 29.8812 56.5221 31.1461 56.7528 33.1375C56.9273 35.2049 57.0888 36.7339 57.2272 37.6586L57.7215 42.3119L63.1938 41.4249L64.8451 41.1776C67.355 40.8018 68.752 40.6601 68.96 40.6965C69.178 40.7989 69.2175 41.0631 69.1547 41.5453C68.9597 42.0472 67.8004 42.4234 65.6868 42.7399L64.4979 42.9179L61.1293 43.4223C60.0064 43.5905 59.2237 43.7752 58.8373 43.9006C58.3947 44.102 58.1404 44.2076 58.0941 44.3496C57.9818 44.5015 57.9652 44.8416 58.0245 45.2379C58.0376 45.7762 57.955 46.1262 57.8427 46.2781C57.7402 46.4961 57.4199 46.6116 56.9575 46.6808C56.4291 46.7599 56.089 46.7433 55.9371 46.631C55.7852 46.5187 55.6796 46.2644 55.6103 45.802C55.5114 45.1415 55.0261 44.6064 54.2402 44.3189C53.8142 44.1801 53.5302 44.0875 53.4444 43.9653C53.3024 43.9191 53.2925 43.853 53.4147 43.7672C53.4709 43.6912 53.6591 43.5955 54.0357 43.4041C54.7326 43.0971 55.1423 42.2254 55.2087 40.8648C55.275 39.5042 55.1238 36.6905 54.6229 32.4435C54.4318 30.7162 54.1616 28.4606 53.8783 25.6667C53.5289 22.8826 53.3872 21.4857 53.3773 21.4196C53.1269 19.2961 53.0248 18.1633 53.0612 17.9553ZM81.1144 25.5726C80.9364 24.3836 80.6394 23.7528 80.243 23.8121C79.7807 23.8814 79.3017 24.2908 78.7401 25.0502C78.1785 25.8096 77.8712 26.4634 77.7522 27.0215C77.719 27.7018 77.4944 28.0056 77.1641 28.055C76.8999 28.0946 76.9427 28.831 77.1405 30.152L77.2592 30.9447C77.457 32.2657 77.7078 33.0385 77.8795 33.2829C78.061 33.5934 78.4209 33.7421 78.9592 33.729C79.4876 33.6499 79.8179 33.6004 79.7981 33.4683C79.5141 33.3758 79.6628 33.0159 80.2244 32.2565C80.7299 31.573 80.9217 30.5988 80.7337 29.3438C80.5557 28.1549 80.5988 27.5407 80.929 27.4912C81.1932 27.4517 81.3024 26.8275 81.1144 25.5726ZM78.3279 22.7483C78.5525 22.4445 79.1272 22.2234 80.0519 22.0849C81.5051 21.8673 82.6014 21.9733 83.209 22.4226C83.5127 22.6472 83.7536 23.354 83.9317 24.5429L84.0009 25.0053C84.1327 26.3362 84.0695 28.169 83.765 30.6458C83.6559 31.2699 83.6789 31.8742 83.758 32.4026C83.847 32.9971 83.9724 33.3835 84.2002 33.552C84.5436 34.0408 84.7548 34.5495 84.8141 34.9458C84.8933 35.4742 84.6785 35.844 84.2458 36.1114C84.1236 36.1972 83.9255 36.2269 83.7934 36.2467C83.331 36.3159 82.9149 36.2432 82.5914 35.8864C82.2678 35.5297 82.0665 35.0871 81.9775 34.4926C81.8983 33.9642 81.7927 33.7099 81.6507 33.6636C81.5186 33.6834 81.2742 33.8551 80.8613 34.2546C80.2799 34.8819 79.517 35.1988 78.5262 35.3471C77.8657 35.446 77.1194 35.4227 76.4094 35.1914C75.8414 35.0063 75.5444 34.3755 75.3861 33.3186C75.2674 32.526 75.2413 31.4494 75.42 29.937C75.4994 29.1147 75.9159 27.8367 76.6032 26.113C77.2905 24.3893 77.8687 23.2898 78.3279 22.7483ZM91.4991 5.64874C91.7436 5.47707 92.0837 5.49367 92.5196 5.69853C92.9752 6.03549 93.0544 6.5639 92.6909 7.29364C92.2713 8.09934 91.9905 8.47905 91.7923 8.50872C91.5281 8.54828 91.4126 8.22792 91.3038 7.50135C91.1654 6.57664 91.2084 5.9624 91.4991 5.64874ZM91.8019 9.92546C91.8944 9.64147 92.0728 9.4797 92.271 9.45003C92.5352 9.41046 92.7828 9.71105 93.1261 10.1999C93.4034 10.6986 93.6344 11.3394 93.7432 12.0659C94.9598 20.1902 95.3946 24.4471 95.0577 24.9028C94.833 25.2066 94.4929 25.19 94.0372 24.853C93.6113 24.7142 93.2912 23.479 92.9549 21.2333C92.7373 19.7801 92.5395 18.4591 92.4473 17.3924C91.8507 12.9571 91.6168 10.4934 91.8019 9.92546ZM94.0745 34.5721C94.8575 33.0366 95.6734 32.1716 96.466 32.0529C96.9284 31.9837 97.3643 32.1885 97.7539 32.5354C98.0015 32.836 98.1731 33.0804 98.2127 33.3446C98.3907 34.5335 97.7101 35.851 96.2171 37.1551C95.3814 37.888 94.8926 38.2314 94.6944 38.261C94.4962 38.2907 94.2024 38.1321 93.7467 37.7952C93.301 37.5242 93.1293 37.2798 93.0897 37.0156C93.0403 36.6854 93.3278 35.8995 94.0745 34.5721ZM20.9846 87.7133C20.9648 87.5812 20.4233 87.1221 19.3403 86.2037C18.2673 85.3514 17.7159 84.8262 17.6763 84.562C17.617 84.1657 17.3891 83.9972 17.1249 84.0368C16.8607 84.0763 16.765 83.8881 16.8279 83.4059C16.9006 82.9898 16.7092 82.6133 16.1677 82.1541C15.5701 81.7709 15.2532 81.008 15.095 79.9512C14.9268 78.8283 15.013 77.5998 15.3535 76.2657C15.7038 74.9977 16.216 73.908 16.9757 73.1189C17.8577 72.244 19.1459 71.3757 20.7742 70.5241C21.9136 70.0158 22.6766 69.699 23.205 69.6199C23.4692 69.5803 23.7433 69.6068 23.8754 69.587C24.6878 69.6004 25.2261 69.5873 25.5563 69.5379C26.8774 69.3401 27.5972 69.6375 27.706 70.364C27.7357 70.5622 27.6894 70.7042 27.6993 70.7702C27.6365 71.2524 27.4019 71.4901 27.0519 71.4074C26.6259 71.2686 25.9258 71.1033 24.8955 70.9875C23.7991 70.8815 23.1089 70.7823 22.7126 70.8416L22.5805 70.8614C22.6399 71.2577 22.4615 71.4195 22.1973 71.4591C20.5096 71.9144 19.0993 72.8684 18.1082 74.3675C17.1171 75.8666 16.7402 77.4087 16.9578 78.8618C17.0963 79.7865 17.4131 80.5495 18.0404 81.1309C18.7536 81.8344 19.3346 82.5578 19.8496 83.2911C20.3745 84.0904 20.8302 84.4274 21.0944 84.3878C21.2925 84.3581 21.4741 84.6686 21.5631 85.2631C21.662 85.9236 21.8337 86.168 22.1639 86.1185C22.4281 86.079 22.7517 86.4357 23.2469 87.0369C23.3723 87.4233 23.468 87.6116 23.468 87.6116C23.5274 88.0079 23.2003 88.5296 22.543 89.1007C22.0739 89.5762 21.519 89.9294 20.9443 90.1505C20.3135 90.4476 19.6166 90.7545 18.8438 91.0053C18.0709 91.2561 17.4302 91.4871 16.9216 91.6984C16.0364 92.101 15.3957 92.332 15.1315 92.3716C14.7352 92.431 14.5734 92.2526 14.4943 91.7242C14.4547 91.46 14.5671 91.3081 14.8973 91.2586C15.1714 91.2851 15.3597 91.1894 15.33 90.9912C15.3102 90.8591 15.6009 90.5455 16.354 90.1626C17.041 89.7896 17.6817 89.5586 18.2101 89.4794C18.3422 89.4597 18.4842 89.5059 18.6163 89.4861L18.7484 89.4664C19.0786 89.4169 19.5212 89.2156 20.1224 88.7204C20.7334 88.2912 21.0241 87.9775 20.9846 87.7133ZM49.6771 76.1908C49.4362 75.484 48.9805 75.147 48.254 75.2558C47.7916 75.3251 47.2268 75.6123 46.4837 76.0612C45.8825 76.5564 45.2517 76.8535 44.6572 76.9425C44.327 76.992 43.8547 76.9951 43.2405 76.9521C42.5602 76.9189 42.154 76.9122 41.9558 76.9418C41.5595 77.0012 41.1466 77.4007 40.7733 78.0644C40.3074 79.012 40.1322 79.6461 40.1817 79.9763C40.241 80.3726 40.0164 80.6764 39.6398 80.8678C39.3294 81.0494 39.2368 81.3334 39.3523 81.6537C39.4777 82.0402 39.4512 82.3143 39.3587 82.5982C39.1902 82.8261 39.1637 83.1002 39.2132 83.4304C39.3319 84.223 39.8469 84.9563 40.8143 85.5543C41.4219 86.0036 42.2936 86.4133 43.4296 86.7834C44.5754 87.2196 45.2755 87.3849 45.6057 87.3355C45.936 87.286 46.7816 86.6191 48.2085 85.3249C49.0442 84.592 49.6256 83.9647 49.9626 83.509C50.2335 83.0633 50.4648 82.3533 50.6665 81.4452C50.812 80.613 50.8452 79.9327 50.7463 79.2722C50.7067 79.008 50.6209 78.8858 50.6011 78.7537C50.238 78.1328 49.9113 77.3038 49.6771 76.1908ZM46.0979 73.4852C45.7942 73.2606 45.5102 73.168 45.1139 73.2274C44.2552 73.356 43.8324 73.6894 43.7794 74.2376C43.7332 74.3796 43.7628 74.5777 43.7826 74.7098C43.8222 74.974 43.8981 75.0302 44.0963 75.0005C44.2944 74.9709 44.737 74.7695 45.358 74.4064C45.6123 74.3008 45.8567 74.1291 46.0252 73.9013C46.1375 73.7494 46.1838 73.6074 46.0979 73.4852ZM42.3432 72.7643C43.0172 71.853 43.8726 71.2522 44.9295 71.094C45.9863 70.9357 47.2543 71.2861 48.6478 72.0229C49.3874 72.4524 49.9949 72.9016 50.3845 73.2485C50.784 73.6614 51.1373 74.2163 51.4541 74.9792C52.1736 76.6273 52.5664 77.4464 52.6423 77.5026C52.7677 77.889 52.7974 78.0872 52.7413 78.1631C52.6752 78.173 52.8469 78.4174 53.2365 78.7643C53.3982 78.9426 53.56 79.121 53.5897 79.3192C53.649 79.7155 53.3516 80.4353 52.7833 81.6009C52.0003 83.1364 51.6467 83.9322 51.6665 84.0643C51.6962 84.2624 51.445 84.8403 51.0353 85.712C50.5596 86.5937 49.7701 87.1846 48.7331 87.475C47.6961 87.7653 47.2072 88.1086 47.2468 88.3729C47.2863 88.6371 46.966 88.7526 46.3055 88.8515C45.2487 89.0097 44.3042 89.0161 43.5182 88.7286C43.2442 88.7021 42.8281 88.6293 42.2601 88.4443C41.702 88.3252 41.352 88.2426 41.21 88.1963C40.5099 88.031 40.1599 87.9484 40.0278 87.9682C39.7438 87.8756 39.1924 87.3504 38.5057 86.3727C37.8488 85.5932 37.4757 84.9062 37.3966 84.3778C37.3373 83.9815 37.3341 83.5092 37.4531 82.9511C37.8501 80.1904 38.6102 78.0506 39.6013 76.5516C40.2752 75.6403 40.6485 74.9766 40.5991 74.6463C40.5694 74.4481 40.6817 74.2963 40.9459 74.2567C41.1441 74.227 41.6132 73.7516 42.3432 72.7643ZM74.3719 66.4149C73.9858 65.1896 73.6887 64.5588 73.5566 64.5786C73.3585 64.6083 73.2031 65.3744 73.0805 66.8109C72.958 68.2474 72.9841 69.324 73.1028 70.1167C73.2215 70.9093 73.413 71.2858 73.6772 71.2462C73.9414 71.2067 74.024 70.8566 73.9152 70.1301C73.8163 69.4696 73.9551 69.0436 74.3218 68.7861C74.5563 68.5484 74.6852 68.0563 74.5764 67.3298C74.5665 67.2637 74.4807 67.1415 74.451 66.9433C74.4213 66.7452 74.3917 66.547 74.3719 66.4149ZM71.6517 62.2301C71.9756 61.2361 72.2928 60.6484 72.6891 60.589C73.1515 60.5198 73.7788 61.1012 74.6371 62.3233C75.4954 63.5454 76.0896 64.8071 76.4756 66.0324C76.5152 66.2966 76.6406 66.683 76.6999 67.0793C77.0066 69.1269 76.6297 70.669 75.6453 71.7619C75.2984 72.1515 75.1399 72.4454 75.1794 72.7096C75.2289 73.0398 74.9117 73.6276 74.3501 74.387C73.6861 75.3644 73.4943 76.3385 73.6525 77.3953C73.7119 77.7916 73.7613 78.1219 73.8472 78.2441C74.1771 79.5454 74.4113 80.6583 74.5498 81.583C74.708 82.6399 74.7211 83.1782 74.6088 83.33C74.4237 83.898 74.3838 84.9845 74.5089 86.7216C74.6537 88.5908 74.5047 90.3015 74.042 91.7214C73.5793 93.1413 73.4468 94.5118 73.6249 95.7007C73.8227 97.0217 73.7662 98.4484 73.5677 99.8287C73.3032 101.219 73.0058 101.939 72.6095 101.998C72.5434 102.008 72.5434 102.008 72.5434 102.008L72.4675 101.952C72.1835 101.859 71.9952 101.955 71.9027 102.239C71.7441 102.533 71.4336 102.715 70.9052 102.794C69.8484 102.952 68.468 102.753 66.8863 102.112C65.2386 101.481 64.3933 100.797 64.2746 100.005C64.2153 99.6085 64.3078 99.3245 64.6381 99.275C65.0344 99.2157 65.7443 99.447 66.7581 99.903C67.9237 100.471 68.8417 100.739 69.6541 100.752C70.0041 100.835 70.2683 100.796 70.4004 100.776C70.6646 100.736 70.7869 100.65 70.8794 100.366C70.9719 100.082 71.0249 99.5342 71.1044 98.7119C71.1111 98.3057 71.1178 97.8995 71.1806 97.4174C71.2435 96.9352 71.2601 96.5951 71.2965 96.387C71.2668 96.1889 71.2933 95.9148 71.3858 95.6308C71.4784 95.3468 71.561 94.9968 71.7758 94.627C71.9806 94.1911 72.0336 93.6429 71.7828 92.8701C71.5518 92.2293 71.519 91.5589 71.7602 90.915C72.5796 89.1715 72.5838 85.5917 71.753 80.0434C71.6046 79.0527 71.4298 78.336 71.3506 77.8076C71.1857 77.157 70.3503 76.5392 68.9304 76.0765C67.3784 75.6336 66.3251 74.9134 65.6847 73.7937C64.7868 72.3074 64.2389 70.9037 64.0411 69.5827C63.9422 68.9222 63.8896 68.1197 63.903 67.3073C63.8076 65.7683 64.0852 64.9164 64.6037 64.7712L64.8679 64.7316C65.4624 64.6426 65.8421 64.9234 65.9212 65.4518C65.9608 65.716 65.9244 65.9241 65.8319 66.2081C65.627 66.6439 65.6895 67.5125 65.8676 68.7014C66.1544 70.6169 66.5207 71.7101 66.9763 72.0471C67.4518 72.5161 67.7192 72.9488 67.7785 73.3451C67.8576 73.8735 68.1151 74.2401 68.6831 74.4252C69.261 74.6764 69.8752 74.7194 70.6018 74.6106C71.1302 74.5315 71.4308 74.2839 71.3714 73.8876C71.3319 73.6234 71.2164 73.303 71.1768 73.0388C70.9062 72.1339 70.903 71.6616 71.2333 71.6122C71.4975 71.5726 71.5604 71.0905 71.4219 70.1658C71.3329 69.5713 71.1414 69.1948 70.9796 69.0164C70.6759 68.7918 70.4745 68.3492 70.3558 67.5566C70.1976 66.4998 70.2771 65.6775 70.5942 65.0897C70.9478 64.2939 71.2816 63.366 71.6517 62.2301ZM102.775 53.9902C102.746 53.7921 102.924 53.6303 103.452 53.5512C103.915 53.482 104.199 53.5745 104.228 53.7726C104.459 54.4134 104.644 55.1961 104.763 55.9887C104.921 57.0455 104.898 57.7919 104.759 58.2179C104.564 58.7198 104.613 59.05 105.049 59.2549C105.333 59.3474 105.581 59.648 105.66 60.1764C105.719 60.5727 105.531 60.6684 105.181 60.5858C104.983 60.6155 104.917 60.6254 104.917 60.6254C104.937 60.7575 105.032 60.9457 105.204 61.1902C105.386 61.5006 105.646 62.3395 105.844 63.6605C105.874 63.8587 105.857 64.1988 105.917 64.5951C105.976 64.9914 106.025 65.3217 106.055 65.5198C106.114 65.9162 106.236 67.181 106.467 69.1724C106.641 71.2398 106.803 72.7689 106.941 73.6936L107.436 78.3468L112.908 77.4598L114.559 77.2126C117.069 76.8367 118.466 76.6951 118.674 76.7314C118.892 76.8339 118.932 77.0981 118.869 77.5802C118.674 78.0821 117.515 78.4583 115.401 78.7748L114.212 78.9529L110.843 79.4573C109.721 79.6254 108.938 79.8102 108.551 79.9356C108.109 80.1369 107.854 80.2425 107.808 80.3845C107.696 80.5364 107.679 80.8766 107.739 81.2729C107.752 81.8112 107.669 82.1612 107.557 82.3131C107.454 82.531 107.134 82.6465 106.672 82.7158C106.143 82.7949 105.803 82.7783 105.651 82.666C105.499 82.5536 105.394 82.2993 105.324 81.837C105.226 81.1765 104.74 80.6414 103.954 80.3538C103.528 80.215 103.244 80.1225 103.158 80.0003C103.016 79.954 103.007 79.888 103.129 79.8021C103.185 79.7262 103.373 79.6305 103.75 79.439C104.447 79.1321 104.856 78.2603 104.923 76.8997C104.989 75.5392 104.838 72.7254 104.337 68.4784C104.146 66.7512 103.876 64.4956 103.592 61.7016C103.243 58.9176 103.101 57.5206 103.091 57.4546C102.841 55.3311 102.739 54.1983 102.775 53.9902ZM130.829 61.6075C130.651 60.4186 130.353 59.7878 129.957 59.8471C129.495 59.9163 129.016 60.3257 128.454 61.0851C127.893 61.8446 127.585 62.4984 127.466 63.0564C127.433 63.7367 127.208 64.0405 126.878 64.09C126.614 64.1295 126.657 64.866 126.855 66.187L126.973 66.9796C127.171 68.3006 127.422 69.0735 127.594 69.3179C127.775 69.6284 128.135 69.7771 128.673 69.764C129.202 69.6849 129.532 69.6354 129.512 69.5033C129.228 69.4108 129.377 69.0508 129.939 68.2914C130.444 67.6079 130.636 66.6338 130.448 65.3788C130.27 64.1899 130.313 63.5756 130.643 63.5262C130.907 63.4866 131.016 62.8625 130.829 61.6075ZM128.042 58.7832C128.267 58.4795 128.841 58.2584 129.766 58.1199C131.219 57.9023 132.316 58.0082 132.923 58.4575C133.227 58.6822 133.468 59.3889 133.646 60.5779L133.715 61.0402C133.847 62.3711 133.784 64.204 133.479 66.6807C133.37 67.3048 133.393 67.9092 133.472 68.4376C133.561 69.0321 133.687 69.4185 133.914 69.5869C134.258 70.0758 134.469 70.5844 134.528 70.9807C134.607 71.5091 134.393 71.879 133.96 72.1463C133.838 72.2322 133.64 72.2618 133.507 72.2816C133.045 72.3509 132.629 72.2781 132.305 71.9214C131.982 71.5646 131.781 71.122 131.692 70.5276C131.612 69.9992 131.507 69.7449 131.365 69.6986C131.233 69.7184 130.988 69.89 130.575 70.2895C129.994 70.9169 129.231 71.2337 128.24 71.3821C127.58 71.481 126.833 71.4577 126.123 71.2263C125.556 71.0412 125.258 70.4104 125.1 69.3536C124.982 68.561 124.955 67.4844 125.134 65.9719C125.214 65.1496 125.63 63.8717 126.317 62.148C127.005 60.4243 127.583 59.3247 128.042 58.7832ZM20.0119 114.59C19.7117 113.487 19.6887 112.883 19.8208 112.863C20.2931 112.86 20.8247 113.253 21.4156 114.043C22.0164 114.898 22.4092 115.717 22.5378 116.576C22.5576 116.708 22.5014 116.784 22.5212 116.916C22.541 117.048 22.5509 117.114 22.5509 117.114C22.5608 117.18 22.5046 117.256 22.5145 117.322C22.5343 117.454 22.5442 117.52 22.5442 117.52C22.5936 117.851 22.8215 118.019 23.2276 118.026C23.6338 118.032 24.4265 117.914 25.7475 117.716L28.9179 117.241L28.4329 115.355C28.2019 114.715 28.1327 114.252 28.1129 114.12C28.0635 113.79 28.1659 113.572 28.4301 113.532C28.5622 113.513 28.6381 113.569 28.7702 113.549C29.3184 113.602 29.7179 114.015 29.9687 114.788C30.1535 115.57 30.7246 116.228 31.6161 116.77C32.2138 117.153 32.5935 117.434 32.6133 117.566C32.6331 117.698 32.4646 117.926 32.1078 118.249C31.6949 118.649 31.5561 119.075 31.6254 119.537C31.6451 119.669 31.7144 120.132 31.9454 120.772C32.1962 121.545 32.4996 123.12 32.8755 125.63C33.2612 128.206 33.5413 130.528 33.706 132.529C33.6993 132.936 33.3987 133.183 32.7184 133.15C32.3122 133.143 32.0282 133.051 31.8763 132.938C31.7244 132.826 31.6849 132.562 31.6057 132.033L31.4969 131.307C31.3454 129.844 31.1444 128.051 30.8378 126.003C30.7685 125.541 30.5838 124.758 30.4156 123.635C30.2574 122.578 30.1387 121.786 30.0596 121.257L29.6671 119.087L27.8541 119.156C26.5892 119.278 26.0046 119.433 26.0442 119.697C26.064 119.83 25.8757 119.925 25.4794 119.985C25.3473 120.004 25.0831 120.044 24.8189 120.084C24.4887 120.133 24.2806 120.097 24.2146 120.107C23.9504 120.146 23.8281 120.232 23.772 120.308C23.7649 122.065 23.7053 123.019 23.5269 123.181C23.4344 123.465 23.6357 123.907 24.0649 124.519C24.57 125.186 25.0055 126.741 25.3813 129.251C25.7077 131.431 25.6777 132.583 25.3673 132.765C25.2451 132.851 25.113 132.871 24.9809 132.89C24.4524 132.97 24.0628 132.623 23.7923 131.718C23.5217 130.813 23.1225 129.049 22.7071 126.275C22.1663 123.115 21.7573 121.285 21.5361 120.71C21.249 120.145 20.5952 119.838 19.6507 119.845C19.0463 119.867 18.6864 119.719 18.561 119.332L18.5511 119.266L18.4653 119.144C18.4257 118.88 18.7263 118.632 19.5189 118.514C19.5189 118.514 19.6609 118.56 19.859 118.53C20.0572 118.501 20.1893 118.481 20.3214 118.461L20.4535 118.441C21.114 118.342 21.4708 118.019 21.3817 117.424C21.3521 117.226 21.1903 117.048 21.0285 116.869C20.5729 116.532 20.256 115.769 20.0119 114.59ZM51.8841 116.233C51.3592 115.434 50.8276 115.041 50.2332 115.13C49.4406 115.249 48.8691 115.942 48.5847 117.2L48.1252 119.092L49.7963 118.977L50.3247 118.898C51.7118 118.69 52.3691 118.119 52.2207 117.128C52.1812 116.864 52.0657 116.544 51.8841 116.233ZM47.5615 115.327C48.2816 114.274 49.1371 113.673 50.1279 113.525L50.4581 113.475C51.6668 113.429 52.499 113.575 53.1066 114.024C53.7141 114.474 54.1168 115.359 54.2948 116.548L54.4036 117.274C54.4365 117.945 53.9971 118.618 53.0755 119.229C52.1639 119.906 51.0707 120.272 49.8157 120.46C49.0231 120.579 48.5046 120.724 48.3163 120.819C48.138 120.981 48.1016 121.189 48.1412 121.453L48.2203 121.982C48.4248 122.897 48.4478 123.501 48.2231 123.805C48.0084 124.175 48.2394 124.815 48.9063 125.661C49.4411 126.526 49.9628 126.853 50.4251 126.784C50.5572 126.764 50.6233 126.754 50.7455 126.669C51.3961 126.504 51.6967 126.256 51.7694 125.84C51.7299 125.576 51.9743 125.404 52.4367 125.335C52.9651 125.256 53.4009 125.461 53.5924 125.837C53.6881 126.025 53.7739 126.148 53.7937 126.28C53.8728 126.808 53.668 127.244 53.1791 127.587C52.6903 127.931 52.0496 128.162 51.257 128.28C48.747 128.656 47.4129 128.316 47.2547 127.259C47.1162 126.334 46.8852 125.693 46.6475 125.459C46.3338 125.168 46.1127 124.594 45.9742 123.669L45.9248 123.339L45.8555 122.876C45.7566 122.216 45.3472 121.737 44.6274 121.439C43.7754 121.162 43.3032 121.165 43.2106 121.449C43.0718 121.875 42.5731 122.152 41.6484 122.291C40.9879 122.39 40.6378 122.307 40.5983 122.043C40.5587 121.779 41.358 121.254 43.0722 120.524C44.2215 120.082 44.9184 119.775 45.2751 119.451C45.6418 119.194 45.8565 118.824 46.0416 118.256C46.2069 117.556 46.6728 116.608 47.5615 115.327ZM63.5397 103.345C63.5101 103.147 63.6884 102.985 64.2168 102.906C64.6792 102.837 64.9632 102.929 64.9928 103.127C65.2239 103.768 65.4086 104.551 65.5273 105.344C65.6855 106.4 65.6622 107.147 65.5234 107.573C65.3285 108.075 65.3779 108.405 65.8138 108.61C66.0978 108.702 66.3454 109.003 66.4245 109.531C66.4839 109.928 66.2956 110.023 65.9456 109.941C65.7474 109.97 65.6814 109.98 65.6814 109.98C65.7011 110.112 65.7969 110.301 65.9685 110.545C66.1501 110.855 66.4108 111.694 66.6086 113.015C66.6383 113.213 66.6217 113.554 66.681 113.95C66.7404 114.346 66.7898 114.677 66.8195 114.875C66.8788 115.271 67.0007 116.536 67.2314 118.527C67.4059 120.595 67.5673 122.124 67.7058 123.048L68.2 127.702L73.6724 126.815L75.3236 126.567C77.8336 126.192 79.2305 126.05 79.4386 126.086C79.6565 126.189 79.6961 126.453 79.6332 126.935C79.4383 127.437 78.279 127.813 76.1654 128.13L74.9765 128.308L71.6078 128.812C70.485 128.98 69.7023 129.165 69.3158 129.29C68.8733 129.492 68.619 129.597 68.5727 129.739C68.4604 129.891 68.4438 130.231 68.5031 130.628C68.5162 131.166 68.4335 131.516 68.3212 131.668C68.2188 131.886 67.8984 132.001 67.4361 132.071C66.9077 132.15 66.5675 132.133 66.4156 132.021C66.2637 131.908 66.1581 131.654 66.0889 131.192C65.99 130.531 65.5047 129.996 64.7188 129.709C64.2928 129.57 64.0088 129.477 63.923 129.355C63.781 129.309 63.7711 129.243 63.8933 129.157C63.9494 129.081 64.1377 128.985 64.5142 128.794C65.2111 128.487 65.6208 127.615 65.6872 126.255C65.7536 124.894 65.6024 122.08 65.1015 117.833C64.9104 116.106 64.6401 113.85 64.3568 111.056C64.0074 108.272 63.8658 106.875 63.8559 106.809C63.6054 104.686 63.5033 103.553 63.5397 103.345ZM86.8898 99.8485C86.8601 99.6503 87.0385 99.4885 87.5669 99.4094C88.0293 99.3402 88.3133 99.4327 88.3429 99.6309C88.5739 100.272 88.7587 101.054 88.8774 101.847C89.0356 102.904 89.0123 103.65 88.8735 104.076C88.6786 104.578 88.728 104.908 89.1639 105.113C89.4479 105.206 89.6955 105.506 89.7746 106.035C89.8339 106.431 89.6457 106.527 89.2956 106.444C89.0975 106.474 89.0314 106.484 89.0314 106.484C89.0512 106.616 89.1469 106.804 89.3186 107.048C89.5002 107.359 89.7608 108.198 89.9587 109.519C89.9883 109.717 89.9717 110.057 90.0311 110.453C90.0904 110.85 90.1399 111.18 90.1696 111.378C90.2289 111.774 90.3508 113.039 90.5815 115.031C90.756 117.098 90.9174 118.627 91.0559 119.552L91.5501 124.205L97.0224 123.318L98.6737 123.071C101.184 122.695 102.581 122.553 102.789 122.59C103.007 122.692 103.046 122.956 102.983 123.438C102.788 123.94 101.629 124.317 99.5155 124.633L98.3265 124.811L94.9579 125.316C93.8351 125.484 93.0523 125.668 92.6659 125.794C92.2233 125.995 91.969 126.101 91.9228 126.243C91.8104 126.395 91.7938 126.735 91.8532 127.131C91.8663 127.669 91.7836 128.019 91.6713 128.171C91.5689 128.389 91.2485 128.505 90.7861 128.574C90.2577 128.653 89.9176 128.637 89.7657 128.524C89.6138 128.412 89.5082 128.158 89.439 127.695C89.3401 127.035 88.8547 126.5 88.0688 126.212C87.6429 126.073 87.3589 125.981 87.273 125.859C87.131 125.812 87.1212 125.746 87.2434 125.66C87.2995 125.584 87.4878 125.489 87.8643 125.297C88.5612 124.99 88.9709 124.119 89.0373 122.758C89.1037 121.397 88.9525 118.584 88.4516 114.337C88.2605 112.609 87.9902 110.354 87.7069 107.56C87.3575 104.776 87.2159 103.379 87.206 103.313C86.9555 101.189 86.8534 100.057 86.8898 99.8485ZM121.838 108.864C121.597 108.158 121.142 107.821 120.415 107.929C119.953 107.999 119.388 108.286 118.645 108.735C118.044 109.23 117.413 109.527 116.818 109.616C116.488 109.666 116.016 109.669 115.402 109.626C114.721 109.592 114.315 109.586 114.117 109.615C113.721 109.675 113.308 110.074 112.934 110.738C112.469 111.686 112.293 112.32 112.343 112.65C112.402 113.046 112.177 113.35 111.801 113.541C111.49 113.723 111.398 114.007 111.513 114.327C111.639 114.714 111.612 114.988 111.52 115.272C111.351 115.5 111.325 115.774 111.374 116.104C111.493 116.897 112.008 117.63 112.975 118.228C113.583 118.677 114.455 119.087 115.591 119.457C116.737 119.893 117.437 120.059 117.767 120.009C118.097 119.96 118.943 119.293 120.37 117.999C121.205 117.266 121.787 116.638 122.124 116.183C122.395 115.737 122.626 115.027 122.828 114.119C122.973 113.287 123.006 112.606 122.907 111.946C122.868 111.682 122.782 111.559 122.762 111.427C122.399 110.806 122.072 109.977 121.838 108.864ZM118.259 106.159C117.955 105.934 117.671 105.842 117.275 105.901C116.416 106.03 115.994 106.363 115.941 106.911C115.894 107.053 115.924 107.251 115.944 107.383C115.983 107.648 116.059 107.704 116.257 107.674C116.456 107.644 116.898 107.443 117.519 107.08C117.773 106.974 118.018 106.803 118.186 106.575C118.299 106.423 118.345 106.281 118.259 106.159ZM114.504 105.438C115.178 104.527 116.034 103.926 117.091 103.768C118.147 103.609 119.415 103.96 120.809 104.696C121.549 105.126 122.156 105.575 122.546 105.922C122.945 106.335 123.298 106.89 123.615 107.653C124.335 109.301 124.728 110.12 124.803 110.176C124.929 110.563 124.959 110.761 124.902 110.837C124.836 110.847 125.008 111.091 125.398 111.438C125.559 111.616 125.721 111.795 125.751 111.993C125.81 112.389 125.513 113.109 124.944 114.275C124.161 115.81 123.808 116.606 123.828 116.738C123.857 116.936 123.606 117.514 123.196 118.386C122.721 119.267 121.931 119.858 120.894 120.149C119.857 120.439 119.368 120.782 119.408 121.046C119.447 121.311 119.127 121.426 118.467 121.525C117.41 121.683 116.465 121.69 115.679 121.402C115.405 121.376 114.989 121.303 114.421 121.118C113.863 120.999 113.513 120.916 113.371 120.87C112.671 120.705 112.321 120.622 112.189 120.642C111.905 120.549 111.354 120.024 110.667 119.046C110.01 118.267 109.637 117.58 109.558 117.051C109.498 116.655 109.495 116.183 109.614 115.625C110.011 112.864 110.771 110.724 111.762 109.225C112.436 108.314 112.81 107.65 112.76 107.32C112.731 107.122 112.843 106.97 113.107 106.93C113.305 106.901 113.774 106.425 114.504 105.438ZM26.582 154.857C26.8992 154.27 27.114 153.9 27.3121 153.87C27.5763 153.831 27.7678 154.207 27.8865 155C27.9161 155.198 27.9391 155.802 28.0115 156.737C28.0377 157.814 28.1366 158.474 28.1564 158.606C28.275 159.399 28.4764 159.841 28.7604 159.934C28.9024 159.98 28.9783 160.036 29.0444 160.026C29.0542 160.092 29.1302 160.149 29.1302 160.149C29.1401 160.215 29.15 160.281 29.1599 160.347C29.1136 160.489 29.0574 160.565 28.9451 160.717C28.552 161.248 28.4824 162.137 28.6802 163.458C28.7396 163.854 28.8353 164.042 28.9674 164.022C29.0335 164.012 30.1764 162.626 32.3766 159.73C34.286 157.148 35.571 155.808 36.0994 155.728C36.3636 155.689 36.6112 155.989 36.7002 156.584C36.6077 156.868 36.5713 157.076 36.5053 157.086C36.2213 156.993 35.8084 157.393 35.1444 158.37C34.4242 159.423 33.8989 159.975 33.5687 160.024C33.1724 160.084 33.0039 160.311 33.0632 160.708C33.1424 161.236 32.5444 162.204 31.3354 163.6C30.2584 164.977 29.7925 165.925 29.8816 166.519C29.9805 167.18 30.6639 167.685 32.074 168.082C33.058 168.34 33.5798 168.667 33.6193 168.931C33.6589 169.195 34.0485 169.542 34.8079 170.104C35.5673 170.665 36.3829 171.151 37.1028 171.448C37.6146 171.709 37.9183 171.934 37.948 172.132C37.9777 172.33 37.895 172.68 37.7562 173.106L37.3299 174.318L36.1512 173.211C35.372 172.518 34.7744 172.135 34.3781 172.194C33.9818 172.253 33.82 172.075 33.7606 171.679C33.7211 171.414 33.1036 170.899 32.0504 170.179C30.9409 169.535 30.2111 169.171 29.8809 169.221L29.7587 169.306C29.534 169.61 29.6853 172.424 30.2586 177.606C30.3607 178.738 30.4034 179.475 30.3109 179.759C30.2184 180.043 29.9178 180.29 29.4653 180.426L28.3721 180.792L27.9637 176.261C27.7663 173.589 27.7171 171.908 27.7602 171.294C27.8725 171.142 27.7669 170.888 27.4533 170.597C27.1495 170.372 26.9778 170.128 27.0803 169.91C27.1728 169.626 27.011 169.448 26.4431 169.263C26.169 169.236 25.9609 169.2 25.885 169.144C25.809 169.087 25.7991 169.021 25.9115 168.87C25.9676 168.794 26.146 168.632 26.3805 168.394C26.7373 168.071 26.9619 167.767 26.9223 167.503C26.8927 167.304 26.7111 166.994 26.3678 166.505C26.0343 166.082 25.8528 165.772 25.8231 165.574C25.7835 165.309 26.0643 164.93 26.6457 164.302C27.3493 163.589 27.5344 163.021 27.1349 162.608C26.7453 162.262 26.6298 161.941 26.7125 161.591C26.7852 161.175 26.6962 160.581 26.3034 159.762C25.8248 158.82 25.7358 158.226 26.0462 158.044C26.2808 157.806 26.4196 157.38 26.3306 156.786C26.2514 156.258 26.2945 155.643 26.582 154.857ZM48.0693 142.388C48.3798 142.206 48.3303 141.876 48.0068 141.519C47.7228 141.427 47.5543 141.655 47.6136 142.051C47.6433 142.249 47.6631 142.381 47.8051 142.427C47.8909 142.55 47.957 142.54 48.0693 142.388ZM49.9586 141.024C49.9191 140.76 49.7672 140.648 49.503 140.688C49.1067 140.747 48.9382 140.975 48.9117 141.249C48.9414 141.447 49.0932 141.559 49.3575 141.52C49.7538 141.46 49.9982 141.289 49.9586 141.024ZM46.9468 141.205C47.6207 140.294 48.2879 139.789 48.9484 139.69C49.0805 139.67 49.2886 139.707 49.4207 139.687C50.1009 139.72 51.0751 139.912 52.2771 140.272C53.4131 140.642 54.0669 140.95 54.0965 141.148C54.1262 141.346 53.9411 141.914 53.5314 142.786C53.3728 143.079 53.234 143.505 53.0952 143.931C52.9002 144.433 52.8176 144.783 52.7152 145.001C52.6226 145.285 52.464 145.579 52.3054 145.873C52.0907 146.243 51.8661 146.547 51.6414 146.85C51.4168 147.154 51.1261 147.468 50.8354 147.781L49.4646 149L49.0887 146.49L47.2227 147.107C46.3277 147.444 45.4789 147.638 44.8184 147.737C44.0918 147.846 43.6097 147.783 43.3059 147.558C43.154 147.446 43.0682 147.324 43.0286 147.06C42.9297 146.399 43.3129 145.801 44.3203 145.313C45.0635 144.864 45.5226 144.323 45.5657 143.708C45.6088 143.094 46.0945 142.278 46.9468 141.205ZM48.2468 158.907C48.2998 158.359 48.5806 157.979 49.1751 157.89C49.4393 157.85 49.5813 157.897 49.7232 157.943C49.8751 158.055 49.9709 158.243 50.0203 158.574C50.0401 158.706 50.0532 159.244 50.1454 160.311C50.2439 162.322 50.3559 163.521 50.4252 163.983C50.5241 164.644 50.4711 165.192 50.3983 165.608C50.3256 166.024 50.3023 166.77 50.4044 167.903C50.7071 172.18 50.5348 174.637 49.9072 175.406C49.3918 176.024 49.0252 176.281 48.8931 176.301C48.6289 176.34 48.4671 176.162 48.2559 175.653C48.0545 175.211 48.0711 174.871 48.2297 174.577C48.3883 174.283 48.448 173.328 48.4187 171.78C48.3363 170.779 48.2971 169.164 48.3109 167.001C48.3246 164.838 48.3613 163.279 48.3352 162.203C48.2564 160.323 48.2203 159.181 48.2468 158.907ZM67.1999 148.843C67.3189 148.285 67.6096 147.971 68.0059 147.912C68.4022 147.852 68.64 148.087 68.7092 148.549C68.8872 149.738 68.9695 150.739 69.0882 151.531C69.286 152.852 69.2264 153.807 69.0314 154.309C68.9389 154.593 68.9685 154.791 68.9685 154.791C69.0872 155.583 70.3355 155.802 72.7794 155.436C74.5165 155.311 75.4808 155.436 75.5599 155.965C75.6687 156.691 74.9916 157.13 73.6706 157.328C72.8779 157.447 72.1316 157.424 71.4216 157.192C71.0716 157.11 70.7975 157.083 70.5994 157.113C69.9388 157.212 69.7834 157.978 69.9911 159.365L70.1395 160.356C70.278 161.28 70.2448 161.961 70.1819 162.443C69.8711 163.975 69.8245 165.468 70.0619 167.053L70.141 167.581C70.3819 168.288 70.395 168.826 70.1142 169.206C69.8334 169.586 69.7638 170.474 69.8956 171.805C69.9843 173.75 69.6604 174.744 68.8678 174.863C68.8017 174.873 68.7357 174.883 68.6696 174.893C68.5375 174.912 68.4616 174.856 68.4616 174.856C67.9134 174.803 67.646 174.371 67.5835 173.502C67.5043 172.974 67.5474 172.359 67.6665 171.801C67.7855 171.243 67.7989 170.431 67.7166 169.43C67.6113 167.825 67.7172 166.729 67.9221 166.293C68.0874 165.593 67.9821 163.988 67.7186 161.326L67.2473 157.277L65.7084 157.372C64.6417 157.465 64.1497 157.336 64.0903 156.939C64.0112 156.411 64.358 156.021 65.2827 155.883C65.4809 155.853 65.6889 155.89 65.821 155.87C66.105 155.962 66.2371 155.943 66.3032 155.933C66.5674 155.893 66.7557 155.797 66.9142 155.504C67.0728 155.21 67.1555 154.86 67.1622 154.453C67.1689 154.047 67.1657 153.575 67.1724 153.169C67.1131 152.773 67.1198 152.366 67.1067 151.828C67.0276 151.3 67.0343 150.893 67.0608 150.619C67.0279 149.949 67.071 149.335 67.1999 148.843ZM85.9058 146.042C86.0248 145.483 86.3155 145.17 86.7118 145.11C87.1081 145.051 87.3458 145.286 87.4151 145.748C87.5931 146.937 87.6754 147.938 87.7941 148.73C87.9919 150.051 87.9322 151.006 87.7373 151.507C87.6447 151.791 87.6744 151.99 87.6744 151.99C87.7931 152.782 89.0413 153.001 91.4852 152.635C93.2223 152.509 94.1866 152.635 94.2658 153.164C94.3746 153.89 93.6974 154.329 92.3764 154.527C91.5838 154.646 90.8375 154.622 90.1275 154.391C89.7775 154.308 89.5034 154.282 89.3052 154.312C88.6447 154.411 88.4893 155.177 88.697 156.564L88.8454 157.555C88.9838 158.479 88.9507 159.16 88.8878 159.642C88.577 161.174 88.5304 162.667 88.7678 164.252L88.8469 164.78C89.0878 165.487 89.1009 166.025 88.8201 166.405C88.5393 166.785 88.4697 167.673 88.6015 169.004C88.6901 170.949 88.3663 171.943 87.5736 172.062C87.5076 172.072 87.4415 172.082 87.3755 172.091C87.2434 172.111 87.1674 172.055 87.1674 172.055C86.6193 172.002 86.3519 171.569 86.2893 170.701C86.2102 170.172 86.2533 169.558 86.3723 169C86.4913 168.442 86.5048 167.63 86.4224 166.629C86.3172 165.024 86.4231 163.928 86.628 163.492C86.7933 162.792 86.688 161.187 86.4245 158.525L85.9532 154.476L84.4143 154.571C83.3475 154.664 82.8555 154.535 82.7962 154.138C82.717 153.61 83.0639 153.22 83.9886 153.082C84.1868 153.052 84.3948 153.089 84.5269 153.069C84.8109 153.161 84.943 153.141 85.009 153.132C85.2733 153.092 85.4615 152.996 85.6201 152.702C85.7787 152.409 85.8613 152.059 85.868 151.652C85.8748 151.246 85.8716 150.774 85.8783 150.368C85.8189 149.971 85.8256 149.565 85.8126 149.027C85.7334 148.498 85.7401 148.092 85.7666 147.818C85.7338 147.148 85.7769 146.534 85.9058 146.042ZM116.199 147.11C115.813 145.885 115.516 145.254 115.384 145.274C115.186 145.304 115.03 146.07 114.908 147.506C114.785 148.943 114.811 150.019 114.93 150.812C115.049 151.605 115.24 151.981 115.504 151.942C115.768 151.902 115.851 151.552 115.742 150.826C115.643 150.165 115.782 149.739 116.149 149.482C116.383 149.244 116.512 148.752 116.403 148.025C116.394 147.959 116.308 147.837 116.278 147.639C116.248 147.441 116.219 147.242 116.199 147.11ZM113.479 142.926C113.803 141.932 114.12 141.344 114.516 141.284C114.978 141.215 115.606 141.797 116.464 143.019C117.322 144.241 117.917 145.503 118.303 146.728C118.342 146.992 118.468 147.378 118.527 147.775C118.834 149.822 118.457 151.364 117.472 152.457C117.125 152.847 116.967 153.141 117.006 153.405C117.056 153.735 116.739 154.323 116.177 155.082C115.513 156.06 115.321 157.034 115.48 158.091C115.539 158.487 115.588 158.817 115.674 158.94C116.004 160.241 116.238 161.354 116.377 162.278C116.535 163.335 116.548 163.874 116.436 164.025C116.251 164.593 116.211 165.68 116.336 167.417C116.481 169.286 116.332 170.997 115.869 172.417C115.406 173.837 115.274 175.207 115.452 176.396C115.65 177.717 115.593 179.144 115.395 180.524C115.13 181.914 114.833 182.634 114.436 182.694C114.37 182.704 114.37 182.704 114.37 182.704L114.294 182.647C114.011 182.555 113.822 182.651 113.73 182.935C113.571 183.228 113.261 183.41 112.732 183.489C111.675 183.647 110.295 183.449 108.713 182.808C107.066 182.177 106.22 181.493 106.102 180.7C106.042 180.304 106.135 180.02 106.465 179.97C106.861 179.911 107.571 180.142 108.585 180.598C109.751 181.167 110.669 181.434 111.481 181.448C111.831 181.531 112.095 181.491 112.227 181.471C112.492 181.432 112.614 181.346 112.706 181.062C112.799 180.778 112.852 180.23 112.931 179.407C112.938 179.001 112.945 178.595 113.008 178.113C113.071 177.631 113.087 177.291 113.124 177.082C113.094 176.884 113.12 176.61 113.213 176.326C113.305 176.042 113.388 175.692 113.603 175.322C113.808 174.887 113.861 174.338 113.61 173.566C113.379 172.925 113.346 172.254 113.587 171.61C114.407 169.867 114.411 166.287 113.58 160.739C113.432 159.748 113.257 159.031 113.178 158.503C113.013 157.852 112.177 157.235 110.757 156.772C109.205 156.329 108.152 155.609 107.512 154.489C106.614 153.003 106.066 151.599 105.868 150.278C105.769 149.618 105.717 148.815 105.73 148.003C105.635 146.464 105.912 145.612 106.431 145.467L106.695 145.427C107.289 145.338 107.669 145.619 107.748 146.147C107.788 146.411 107.751 146.62 107.659 146.904C107.454 147.339 107.517 148.208 107.695 149.397C107.981 151.312 108.348 152.406 108.803 152.743C109.279 153.212 109.546 153.644 109.606 154.041C109.685 154.569 109.942 154.936 110.51 155.121C111.088 155.372 111.702 155.415 112.429 155.306C112.957 155.227 113.258 154.979 113.198 154.583C113.159 154.319 113.043 153.998 113.004 153.734C112.733 152.829 112.73 152.357 113.06 152.308C113.325 152.268 113.387 151.786 113.249 150.861C113.16 150.267 112.968 149.89 112.807 149.712C112.503 149.487 112.302 149.045 112.183 148.252C112.025 147.195 112.104 146.373 112.421 145.785C112.775 144.989 113.109 144.061 113.479 142.926Z" fill="black"/>
</svg>
